<svg id="Capa_1" enable-background="new 0 0 512 512" height="512" viewBox="0 0 512 512" width="512" xmlns="http://www.w3.org/2000/svg"><g><g><path d="m489 421.744h-466c-8.284 0-15-6.716-15-15v-304.445h496v304.445c0 8.284-6.716 15-15 15z" fill="#9dc6fb"/><path d="m489 403.744h-466c-8.284 0-15-6.716-15-15v18c0 8.284 6.716 15 15 15h466c8.284 0 15-6.716 15-15v-18c0 8.284-6.716 15-15 15z" fill="#80b4fb"/><path d="m489 27.522h-466c-8.284 0-15 6.716-15 15v59.778h496v-59.778c0-8.285-6.716-15-15-15z" fill="#565e74"/><path d="m350.618 372.971 35.04 93.086 13.709-13.709 32.13 32.131 30.628-30.628-32.13-32.131 13.709-13.709z" fill="#f95750"/><path d="m250.492 235.425c5.013-65.396-44.309-103.394-90.314-103.394s-95.327 37.998-90.313 103.394" fill="#c1a19d"/><g><path d="m160.178 169.199c-36.822 0-66.672 29.85-66.672 66.671v37.16c0 36.822 29.85 66.671 66.671 66.671 36.822 0 66.671-29.85 66.671-66.671v-37.16c.002-36.821-29.848-66.671-66.67-66.671z" fill="#fdd4bb"/><path d="m160.178 321.702c-36.822 0-66.672-29.85-66.672-66.671v18c0 36.822 29.85 66.671 66.671 66.671 36.822 0 66.671-29.85 66.671-66.671v-18c.002 36.821-29.848 66.671-66.67 66.671z" fill="#f7c4a8"/><path d="m160.178 288.495c-9.518 17.383-31.115 13.169-31.115 13.169-5.531-31.079 16.329-38.453 31.115-38.453s36.646 7.375 31.115 38.453c.001 0-21.596 4.214-31.115-13.169z" fill="#c1a19d"/><path d="m93.507 235.87c0-.982.032-1.957.074-2.928-2.983-1.479-6.342-2.315-9.898-2.315-12.323 0-22.312 9.989-22.312 22.312s9.99 22.312 22.312 22.312c3.526 0 6.859-.821 9.824-2.277z" fill="#ebbaa1"/><path d="m226.85 235.87c0-.982-.032-1.957-.074-2.928 2.983-1.479 6.342-2.315 9.898-2.315 12.323 0 22.312 9.989 22.312 22.312s-9.99 22.312-22.312 22.312c-3.526 0-6.859-.821-9.824-2.277z" fill="#ebbaa1"/><g><path d="m63.267 243.939c-1.216 2.754-1.896 5.797-1.896 9 0 12.323 9.99 22.312 22.312 22.312 3.526 0 6.859-.821 9.824-2.277v-18c-2.965 1.456-6.298 2.277-9.824 2.277-9.119 0-16.955-5.473-20.416-13.312z" fill="#e8a990"/></g><g><path d="m236.674 257.251c-3.526 0-6.859-.821-9.824-2.277v18c2.965 1.456 6.298 2.277 9.824 2.277 12.323 0 22.312-9.99 22.312-22.312 0-3.203-.68-6.246-1.896-9-3.461 7.839-11.297 13.312-20.416 13.312z" fill="#e8a990"/></g></g><g><path d="m266.31 421.744c-21.66-71.982-76.597-88.93-76.597-88.93h-.019c-8.899 4.402-18.915 6.888-29.516 6.888-10.601 0-20.617-2.485-29.516-6.888h-.019s-54.937 16.948-76.597 88.93z" fill="#e5907a"/></g><path d="m60.592 403.744c-2.404 5.581-4.61 11.567-6.545 18h212.263c-1.936-6.433-4.141-12.419-6.545-18z" fill="#d68474"/><path d="m160.178 383.884 29.516-51.069c-8.899 4.402-18.915 6.888-29.516 6.888-10.601 0-20.617-2.485-29.516-6.888h-.019z" fill="#ebbaa1"/><path d="m186.053 400.147 31.948-51.356c-15.591-12.057-28.288-15.977-28.288-15.977l-29.535 51.069z" fill="#565d76"/><path d="m134.303 400.147-31.948-51.356c15.591-12.057 28.288-15.977 28.288-15.977l29.535 51.069z" fill="#565d76"/><path d="m374.395 151.308c-31.75 0-57.488 25.738-57.488 57.488s25.738 57.488 57.488 57.488 57.488-25.738 57.488-57.488h-57.488z" fill="#ffdd91"/><path d="m374.395 248.285c-28.688 0-52.461-21.015-56.782-48.488-.461 2.933-.706 5.938-.706 9 0 31.75 25.738 57.488 57.488 57.488s57.488-25.738 57.488-57.488h-2.891c-7.556 22.929-29.136 39.488-54.597 39.488z" fill="#f9cd80"/><path d="m374.395 137.634v71.163h71.163c0-39.303-31.861-71.163-71.163-71.163z" fill="#f95750"/><path d="m374.395 190.796v18h71.163c0-6.219-.803-12.25-2.302-18z" fill="#e84642"/></g><g><path d="m489.456 19.569h-291.406c-4.151 0-7.515 3.365-7.515 7.515s3.364 7.515 7.515 7.515h291.406c4.144 0 7.515 3.371 7.515 7.515v52.38h-75.276c-4.151 0-7.515 3.365-7.515 7.515s3.364 7.515 7.515 7.515h75.276v297.526c0 4.144-3.371 7.515-7.515 7.515h-41.002l.931-.932c1.805-1.805 2.57-4.404 2.031-6.9s-2.308-4.547-4.698-5.447l-93.268-35.109c-5.791-2.401-12.082 3.89-9.681 9.68l14.57 38.706h-86.518c-16.6-49.647-48.248-73.005-66.4-82.748 15.153-11.755 25.665-29.224 28.245-49.156.981.096 1.969.154 2.968.154 16.471 0 29.871-13.4 29.871-29.871 0-7.998-3.166-15.266-8.302-20.633 1.836-37.499-13.153-62.121-26.294-76.309-18.396-19.86-45.282-31.717-71.919-31.717-26.638 0-53.523 11.857-71.92 31.718-13.141 14.187-28.129 38.809-26.294 76.308-5.137 5.367-8.302 12.635-8.302 20.633 0 16.471 13.399 29.871 29.87 29.871.999 0 1.987-.058 2.968-.154 2.58 19.932 13.092 37.4 28.246 49.156-18.151 9.744-49.8 33.101-66.399 82.748h-25.615c-4.144 0-7.515-3.371-7.515-7.515v-297.526h376.607c4.151 0 7.515-3.364 7.515-7.515s-3.364-7.515-7.515-7.515h-376.607v-52.38c0-4.144 3.371-7.515 7.515-7.515h145.447c4.151 0 7.515-3.364 7.515-7.515s-3.364-7.515-7.515-7.515h-145.447c-12.431.002-22.544 10.115-22.544 22.546v364.935c0 12.431 10.113 22.544 22.544 22.544h82.585c4.151 0 7.515-3.365 7.515-7.515s-3.364-7.515-7.515-7.515h-41.046c8.073-21.883 20.197-40.09 36.148-54.286l27.454 44.131c2.074 3.48 6.985 4.617 10.38 2.392l21.927-13.782 21.927 13.782c3.395 2.225 8.306 1.087 10.38-2.392l27.454-44.131c15.951 14.197 28.075 32.404 36.148 54.286h-120.713c-4.151 0-7.515 3.364-7.515 7.515 0 4.15 3.364 7.515 7.515 7.515h228.809l14.881 39.533c1.719 5.008 8.716 6.521 12.346 2.666l8.424-8.423 26.879 26.88c2.799 2.911 7.829 2.911 10.628 0l30.688-30.688c2.934-2.934 2.934-7.693 0-10.627l-19.341-19.341h40.954c12.431 0 22.544-10.113 22.544-22.544v-364.935c0-12.431-10.113-22.544-22.544-22.544zm-237.979 233.373c0 8.184-6.657 14.842-14.841 14.842-.788 0-1.566-.06-2.329-.18v-29.322c.763-.12 1.54-.18 2.329-.18 8.184-.001 14.841 6.657 14.841 14.84zm-165.803 14.661c-.763.12-1.541.18-2.329.18-8.183 0-14.84-6.658-14.84-14.842 0-8.183 6.658-14.841 14.84-14.841.789 0 1.566.06 2.329.18zm-2.329-44.531c-2.286 0-4.51.267-6.651.756.62-27.952 12.163-46.558 22.404-57.613 15.603-16.845 38.367-26.902 60.893-26.902s45.29 10.056 60.892 26.901c10.241 11.056 21.785 29.661 22.405 57.614-3.208-.745-6.741-.951-10.067-.564-5.995-35.007-36.54-61.74-73.23-61.74s-67.236 26.733-73.231 61.74c-1.126-.128-2.264-.192-3.415-.192zm17.358 50.001v-.056s.03-38.92.068-39.786c0-.008-.001-.015-.001-.023 1.384-31.473 27.412-56.654 59.221-56.654 31.814 0 57.846 25.19 59.22 56.672v.006c.037.866.066 39.786.066 39.786v.056c0 32.691-26.596 59.287-59.287 59.287-32.691-.001-59.287-26.597-59.287-59.288zm35.755 116.985-24.33-39.111c6.055-4.137 11.34-6.885 15.026-8.574l22.706 39.261zm10.266-43.866c4.307.78 8.739 1.197 13.268 1.197s8.961-.417 13.268-1.197l-13.268 22.941zm36.801 43.866-13.402-8.424 22.706-39.26c3.69 1.69 8.974 4.438 15.027 8.573zm268.376 64.189-20.061 20.061-26.879-26.88c-2.934-2.935-7.693-2.935-10.627 0l-5.496 5.496-25.159-66.838 66.837 25.16-5.495 5.495c-2.934 2.934-2.934 7.693 0 10.627z"/><ellipse cx="53.046" cy="63.817" rx="12.584" ry="12.584" transform="matrix(.674 -.739 .739 .674 -29.854 60.051)"/><ellipse cx="90.641" cy="63.817" rx="12.584" ry="12.584" transform="matrix(.385 -.923 .923 .385 -3.175 122.868)"/><path d="m115.653 63.817c0 6.939 5.645 12.584 12.583 12.584 6.939 0 12.584-5.645 12.584-12.584s-5.645-12.584-12.584-12.584c-6.938 0-12.583 5.645-12.583 12.584z"/><path d="m146.532 205.567h26.917c4.151 0 7.515-3.365 7.515-7.515s-3.364-7.515-7.515-7.515h-26.917c-4.151 0-7.515 3.365-7.515 7.515.001 4.15 3.365 7.515 7.515 7.515z"/><path d="m189.583 256.235c4.151 0 7.515-3.365 7.515-7.515v-10.82c0-4.15-3.364-7.515-7.515-7.515s-7.515 3.364-7.515 7.515v10.82c0 4.15 3.364 7.515 7.515 7.515z"/><path d="m130.398 256.235c4.151 0 7.515-3.365 7.515-7.515v-10.82c0-4.15-3.364-7.515-7.515-7.515s-7.515 3.364-7.515 7.515v10.82c.001 4.15 3.365 7.515 7.515 7.515z"/><path d="m127.376 309.138c.931.18 19.568 3.618 32.615-8.434 8.177 7.554 18.549 9.023 25.382 9.023 4.07 0 6.886-.522 7.234-.589 3.047-.595 5.415-3.002 5.959-6.059 2.544-14.297.237-25.841-6.859-34.31-9.867-11.778-25.467-13.049-31.715-13.049-6.249 0-21.849 1.271-31.716 13.049-7.095 8.47-9.403 20.014-6.858 34.31.543 3.057 2.911 5.464 5.958 6.059zm12.42-30.718c5.8-6.924 16.055-7.672 20.195-7.672s14.393.747 20.195 7.672c3.256 3.887 4.688 9.352 4.28 16.292-5.377-.15-13.532-1.807-17.884-9.754-1.318-2.408-3.845-3.906-6.591-3.906s-5.273 1.497-6.591 3.906c-4.353 7.949-12.504 9.606-17.884 9.755-.408-6.94 1.023-12.406 4.28-16.293z"/><path d="m150.788 212.968c-4.151 0-7.515 3.365-7.515 7.515s3.364 7.515 7.515 7.515h18.406c4.151 0 7.515-3.365 7.515-7.515s-3.364-7.515-7.515-7.515z"/><path d="m445.929 216.228c4.151 0 7.515-3.365 7.515-7.515 0-43.459-35.357-78.817-78.816-78.817-4.151 0-7.515 3.364-7.515 7.515v6.634c-32.376 3.739-57.601 31.306-57.601 64.668 0 35.905 29.21 65.115 65.116 65.115 33.362 0 60.929-25.225 64.668-57.601h6.633zm-63.787-70.862c29.179 3.44 52.392 26.653 55.832 55.833h-55.832zm-7.515 113.433c-27.617 0-50.086-22.469-50.086-50.086 0-25.064 18.506-45.887 42.571-49.523v49.523c0 4.15 3.364 7.515 7.515 7.515h49.523c-3.636 24.065-24.459 42.571-49.523 42.571z"/><path d="m436.526 303.503c0-4.15-3.364-7.515-7.515-7.515h-108.77c-4.151 0-7.515 3.365-7.515 7.515s3.364 7.515 7.515 7.515h108.77c4.151-.001 7.515-3.365 7.515-7.515z"/><path d="m347.015 330.008c-4.151 0-7.515 3.365-7.515 7.515s3.364 7.515 7.515 7.515h63.682c4.151 0 7.515-3.365 7.515-7.515s-3.364-7.515-7.515-7.515z"/></g></g></svg>