<svg height="512" viewBox="0 0 512 512" width="512" xmlns="http://www.w3.org/2000/svg"><g><path d="m476 192h-12v-84a19.994 19.994 0 0 0 -20-20h-376a19.994 19.994 0 0 0 -20 20v132h48l-8 24h-32l-8-24h-12a19.994 19.994 0 0 0 -20 20v136a19.994 19.994 0 0 0 20 20h72a19.994 19.994 0 0 0 20-20v-84h224v84a19.994 19.994 0 0 0 20 20h104a19.994 19.994 0 0 0 20-20v-184a19.994 19.994 0 0 0 -20-20zm-28 0-8 24h-32l-8-24z" fill="#57a4ff"/><path d="m216 360-8 32h96l-8-32z" fill="#57a4ff"/><g fill="#004fac"><path d="m476 184h-4v-76a28.031 28.031 0 0 0 -28-28h-376a28.031 28.031 0 0 0 -28 28v124h-4a28.031 28.031 0 0 0 -28 28v136a28.031 28.031 0 0 0 28 28h72a28.031 28.031 0 0 0 28-28v-28h69.75l-4 16h-17.75a8 8 0 0 0 -8 8v24a8 8 0 0 0 8 8h144a8 8 0 0 0 8-8v-24a8 8 0 0 0 -8-8h-17.75l-4-16h37.75v28a28.031 28.031 0 0 0 28 28h104a28.031 28.031 0 0 0 28-28v-184a28.031 28.031 0 0 0 -28-28zm-356 212a12.01 12.01 0 0 1 -12 12h-72a12.01 12.01 0 0 1 -12-12v-136a12.01 12.01 0 0 1 12-12h6.23l6.18 18.53a8 8 0 0 0 7.59 5.47h32a8 8 0 0 0 7.59-5.47l6.18-18.53h6.23a12.01 12.01 0 0 1 12 12zm-60.9-148h25.8l-2.67 8h-20.46zm260.9 152v8h-128v-8zm-101.75-16 4-16h67.5l4 16zm125.75-32h-208v-32h208zm0-140v92h-208v-44a28.031 28.031 0 0 0 -28-28h-52v-124a12.01 12.01 0 0 1 12-12h376a12.01 12.01 0 0 1 12 12v76h-84a28.031 28.031 0 0 0 -28 28zm92.9-12-2.67 8h-20.46l-2.67-8zm51.1 196a12.01 12.01 0 0 1 -12 12h-104a12.01 12.01 0 0 1 -12-12v-184a12.01 12.01 0 0 1 12-12h22.23l6.18 18.53a8 8 0 0 0 7.59 5.47h32a8 8 0 0 0 7.59-5.47l6.18-18.53h22.23a12.01 12.01 0 0 1 12 12z"/><path d="m440 384h-32a8 8 0 0 0 0 16h32a8 8 0 0 0 0-16z"/><path d="m88 384h-32a8 8 0 0 0 0 16h32a8 8 0 0 0 0-16z"/><path d="m264 328h-16a8 8 0 0 0 0 16h16a8 8 0 0 0 0-16z"/></g></g></svg>