<svg height="512pt" viewBox="0 0 512 512" width="512pt" xmlns="http://www.w3.org/2000/svg"><path d="m501.550781 243.46875v12.519531h-89.851562v-12.519531c0-7.292969 5.90625-13.203125 13.199219-13.203125h63.457031c7.285156 0 13.195312 5.910156 13.195312 13.203125zm0 0" fill="#ecebed"/><path d="m425.375 347.625h76.175781v16.074219c0 7.292969-5.910156 13.203125-13.195312 13.203125h-63.457031c-7.292969 0-13.199219-5.910156-13.199219-13.203125v-16.074219zm0 0" fill="#ecebed"/><path d="m447.746094 255.988281h53.804687v91.636719h-53.804687zm0 0" fill="#27b5f7"/><path d="m244.445312 221.273438h-155.746093c-7.449219 0-13.488281 6.328124-13.488281 14.128906v160.273437h182.71875v-160.273437c.003906-7.800782-6.035157-14.128906-13.484376-14.128906zm0 0" fill="#27b5f7"/><g fill="#febba0"><path d="m207.042969 352.988281c.167969-.128906.339843-.253906.503906-.390625-.164063.136719-.335937.265625-.503906.390625zm0 0"/><path d="m304.390625 352.589844c.15625.128906.316406.25.480469.371094-.164063-.121094-.324219-.242188-.480469-.371094zm0 0"/><path d="m204.945312 354.3125c.230469-.121094.460938-.246094.683594-.378906-.222656.132812-.453125.257812-.683594.378906zm0 0"/><path d="m301.382812 349.453125c.039063.054687.078126.113281.117188.167969-.039062-.054688-.078125-.113282-.117188-.167969zm0 0"/><path d="m303.519531 351.839844c.136719.125.273438.246094.410157.367187-.136719-.117187-.273438-.242187-.410157-.367187zm0 0"/><path d="m302 350.238281c.082031.097657.160156.199219.246094.296875-.085938-.097656-.164063-.199218-.246094-.296875zm0 0"/><path d="m206.039062 353.675781c.195313-.125.390626-.25.578126-.378906-.1875.128906-.382813.253906-.578126.378906zm0 0"/><path d="m213.511719 342.847656c.007812-.054687.019531-.105468.03125-.160156-.011719.054688-.023438.105469-.03125.160156zm0 0"/><path d="m213.242188 343.964844c.019531-.074219.035156-.144532.054687-.21875-.019531.074218-.035156.144531-.054687.21875zm0 0"/><path d="m210.390625 349.699219c.027344-.039063.050781-.074219.078125-.109375-.027344.035156-.050781.070312-.078125.109375zm0 0"/><path d="m212.035156 347.070312c.03125-.058593.0625-.117187.089844-.175781-.027344.058594-.058594.117188-.089844.175781zm0 0"/><path d="m212.898438 345.050781c.027343-.078125.054687-.15625.082031-.238281-.027344.082031-.054688.160156-.082031.238281zm0 0"/><path d="m209.648438 350.597656c.101562-.117187.199218-.238281.300781-.359375-.097657.121094-.195313.242188-.300781.359375zm0 0"/><path d="m212.488281 346.09375c.035157-.074219.070313-.152344.101563-.226562-.03125.074218-.066406.152343-.101563.226562zm0 0"/><path d="m207.972656 352.246094c.152344-.128906.300782-.261719.449219-.398438-.148437.136719-.296875.269532-.449219.398438zm0 0"/><path d="m255.960938 396.519531c23.238281 0 42.253906-19.015625 42.253906-42.253906v-12.816406c-.078125-.65625-.128906-1.316407-.128906-1.988281v-20.351563h-84.222657v20.351563c0 .757812-.058593 1.507812-.15625 2.246093v12.558594c0 23.238281 19.011719 42.253906 42.253907 42.253906zm0 0"/><path d="m306.308594 353.929688c.222656.128906.449218.253906.679687.375-.230469-.121094-.457031-.246094-.679687-.375zm0 0"/><path d="m203.5 355.007812c.371094-.152343.730469-.324218 1.089844-.5-.359375.175782-.71875.347657-1.089844.5zm0 0"/><path d="m307.355469 354.503906c.355469.179688.71875.351563 1.09375.503906-.371094-.152343-.738281-.324218-1.09375-.503906zm0 0"/><path d="m303.054688 351.398438c-.113282-.113282-.222657-.230469-.335938-.347657.113281.117188.222656.234375.335938.347657zm0 0"/><path d="m209.226562 351.050781c-.125.136719-.253906.269531-.382812.398438.128906-.128907.257812-.261719.382812-.398438zm0 0"/><path d="m305.320312 353.289062c.183594.128907.371094.25.5625.371094-.191406-.121094-.378906-.242187-.5625-.371094zm0 0"/></g><path d="m375.691406 383.027344-67.242187-28.019532c-.375-.152343-.738281-.324218-1.09375-.503906-.125-.0625-.246094-.132812-.367188-.199218-.230469-.121094-.457031-.242188-.679687-.375-.144532-.085938-.285156-.179688-.425782-.269532-.191406-.121094-.378906-.242187-.5625-.371094-.152343-.105468-.304687-.214843-.453124-.328124-.160157-.121094-.324219-.242188-.480469-.367188s-.308594-.253906-.457031-.382812c-.140626-.121094-.277344-.242188-.410157-.367188-.160156-.144531-.3125-.292969-.464843-.445312-.113282-.113282-.226563-.230469-.335938-.347657-.164062-.167969-.320312-.339843-.476562-.515625-.082032-.097656-.164063-.195312-.246094-.296875-.167969-.203125-.335938-.40625-.496094-.617187-.042969-.054688-.078125-.109375-.121094-.164063-1.488281-2.023437-2.523437-4.375-2.996094-6.890625 0-.003906 0-.003906 0-.007812-.070312-.367188-.125-.734375-.171874-1.109375v12.816406c0 23.238281-19.011719 42.253906-42.253907 42.253906-23.238281 0-42.253906-19.011719-42.253906-42.253906v-12.554687c-.042969.328124-.101563.652343-.164063.976562-.007812.054688-.019531.109375-.027343.164062-.0625.300782-.136719.601563-.214844.898438-.019531.070312-.039063.144531-.058594.21875-.078125.285156-.164062.566406-.257812.847656-.027344.078125-.054688.15625-.082031.234375-.097657.277344-.199219.546875-.308594.816407-.03125.078124-.066406.152343-.101563.230468-.113281.269532-.234375.535156-.363281.800782-.027344.058593-.0625.113281-.089844.175781-.449218.882812-.972656 1.726562-1.566406 2.515625-.027344.035156-.050781.074218-.078125.109375-.144531.183593-.292969.363281-.441406.542969-.101563.117187-.199219.238281-.300781.355468-.136719.15625-.28125.308594-.421876.457032-.128906.132812-.253906.265624-.386718.394531-.136719.136719-.277344.269531-.421875.398437-.144531.136719-.292969.269532-.445313.398438-.140625.121094-.28125.238281-.425781.355468-.164063.132813-.335937.261719-.507813.386719-.136718.105469-.28125.210938-.421874.308594-.191407.132813-.382813.257813-.578126.378906-.136718.089844-.269531.175781-.410156.257813-.222656.132812-.453125.257812-.683594.382812-.121093.0625-.234374.128906-.359374.191406-.355469.179688-.714844.347657-1.089844.503907l-67.238282 28.015625c-14.207031 5.917968-23.460937 22.007812-23.460937 37.398437v81.089844h286.351563v-81.089844c.003906-15.390625-9.253907-31.480469-23.457032-37.398437zm0 0" fill="#fff"/><path d="m375.691406 383.027344-67.242187-28.019532c-.375-.152343-.738281-.324218-1.09375-.503906-.125-.0625-.246094-.132812-.367188-.199218-.230469-.121094-.457031-.242188-.679687-.375-.144532-.085938-.285156-.179688-.425782-.269532-.191406-.121094-.378906-.242187-.5625-.371094-.152343-.105468-.304687-.214843-.453124-.328124-.160157-.121094-.324219-.242188-.480469-.367188s-.308594-.253906-.457031-.382812c-.140626-.121094-.277344-.242188-.410157-.367188-.160156-.144531-.3125-.292969-.464843-.445312-.113282-.113282-.226563-.230469-.335938-.347657-.164062-.167969-.320312-.339843-.476562-.515625-.082032-.097656-.164063-.195312-.246094-.296875-.167969-.203125-.335938-.40625-.496094-.617187-.042969-.054688-.078125-.109375-.121094-.164063-1.488281-2.023437-2.523437-4.375-2.996094-6.890625 0-.003906 0-.003906 0-.007812-.058593-.300782-.097656-.601563-.140624-.902344h-.03125v12.609375c0 23.238281-19.011719 42.253906-42.253907 42.253906-15.300781 0-28.769531-8.246093-36.1875-20.511719l-16.84375 7.019532c-14.207031 5.921875-23.460937 22.007812-23.460937 37.398437v81.089844h219.683594v-81.089844c.003906-15.390625-9.253907-31.480469-23.457032-37.398437zm0 0" fill="#89cd37"/><path d="m350.003906 199.152344v-30.441406c0-51.832032-42.015625-93.847657-93.84375-93.847657-51.832031 0-93.847656 42.015625-93.847656 93.847657h-.371094v30.441406c-12.921875 0-23.402344 10.476562-23.402344 23.402344 0 12.925781 10.480469 23.40625 23.402344 23.40625v17.46875c1.128906 14.734374 8.3125 27.855468 19.195313 35.039062l56.574219 32.34375c11.359374 7.503906 25.171874 7.503906 36.53125 0l56.40625-32.34375c10.878906-7.183594 18.230468-20.304688 19.359374-35.039062v-17.46875c12.925782 0 23.402344-10.480469 23.402344-23.40625 0-12.925782-10.480468-23.402344-23.40625-23.402344zm0 0" fill="#fff"/><path d="m350.003906 199.152344v-30.441406c0-43.214844-29.207031-79.597657-68.957031-90.507813-39.746094 10.910156-68.957031 47.292969-68.957031 90.507813h-.367188v94.71875c1.125 14.734374 8.3125 27.851562 19.191406 35.039062l49.941407 28.550781 49.789062-28.550781c10.878907-7.1875 18.234375-20.304688 19.359375-35.039062v-17.472657c12.925782 0 23.40625-10.476562 23.40625-23.402343 0-12.925782-10.480468-23.402344-23.40625-23.402344zm0 0" fill="#febba0"/><path d="m278.550781 119.742188c5.578125 14.53125 32.582031 20.632812 43.191407 30.007812 20.996093 18.558594 28.25 33.082031 28.25 33.082031s33.085937-65.046875-4.453126-112.875c-17.703124-22.558593-36.425781-27.375-50.328124-20.609375-7.328126-6.257812-17.085938-12.511718-30.898438-16.003906-46.261719 10.847656-71.238281 51.09375-71.238281 87.453125 0 10.988281 1.078125 21 2.699219 29.878906 5.601562-2.089843 12.097656-3.339843 19.644531-3.339843 31.207031-.003907 50.011719-12.390626 63.132812-27.59375zm0 0" fill="#703e41"/><path d="m113.566406 270.613281h-.136718c-5.769532 0-10.449219-4.675781-10.449219-10.445312s4.679687-10.449219 10.449219-10.449219h.136718c5.769532 0 10.449219 4.679688 10.449219 10.449219s-4.679687 10.445312-10.449219 10.445312zm0 0"/><path d="m79.628906 270.613281h-29.8125c-5.769531 0-10.449218-4.675781-10.449218-10.445312s4.679687-10.449219 10.449218-10.449219h29.8125c5.769532 0 10.445313 4.679688 10.445313 10.449219s-4.675781 10.445312-10.445313 10.445312zm0 0"/><path d="m134.214844 331.5625h-84.398438c-5.769531 0-10.449218-4.679688-10.449218-10.449219s4.679687-10.449219 10.449218-10.449219h84.398438c5.769531 0 10.449218 4.679688 10.449218 10.449219s-4.679687 10.449219-10.449218 10.449219zm0 0"/><path d="m113.566406 301.085938h-.136718c-5.769532 0-10.449219-4.675782-10.449219-10.445313s4.679687-10.449219 10.449219-10.449219h.136718c5.769532 0 10.449219 4.679688 10.449219 10.449219s-4.679687 10.445313-10.449219 10.445313zm0 0"/><path d="m79.628906 301.089844h-29.8125c-5.769531 0-10.449218-4.679688-10.449218-10.449219s4.679687-10.449219 10.449218-10.449219h29.8125c5.769532 0 10.445313 4.679688 10.445313 10.449219s-4.675781 10.449219-10.445313 10.449219zm0 0"/><path d="m144.824219 301.089844h-.976563c-5.769531 0-10.449218-4.679688-10.449218-10.449219s4.679687-10.449219 10.449218-10.449219h.976563c5.769531 0 10.445312 4.679688 10.445312 10.449219s-4.675781 10.449219-10.445312 10.449219zm0 0"/><path d="m10.585938 511.960938h-.136719c-5.773438 0-10.449219-4.675782-10.449219-10.445313 0-5.773437 4.675781-10.449219 10.449219-10.449219h.136719c5.769531 0 10.445312 4.675782 10.445312 10.449219 0 5.769531-4.675781 10.445313-10.445312 10.445313zm0 0"/><path d="m501.5 511.960938h-.136719c-5.769531 0-10.445312-4.675782-10.445312-10.445313 0-5.773437 4.675781-10.449219 10.445312-10.449219h.136719c5.769531 0 10.449219 4.675782 10.449219 10.449219 0 5.769531-4.679688 10.445313-10.449219 10.445313zm0 0"/><path d="m294.078125 235.464844c-6.441406 0-11.679687-5.242188-11.679687-11.679688 0-6.441406 5.238281-11.679687 11.679687-11.679687 6.4375 0 11.675781 5.238281 11.675781 11.679687 0 6.4375-5.238281 11.679688-11.675781 11.679688zm0 0"/><path d="m217.871094 235.464844c-6.4375 0-11.679688-5.242188-11.679688-11.679688 0-6.441406 5.242188-11.679687 11.679688-11.679687 6.441406 0 11.679687 5.238281 11.679687 11.679687 0 6.4375-5.238281 11.679688-11.679687 11.679688zm0 0"/><path d="m256.019531 292.4375c-11.390625 0-20.660156-9.265625-20.660156-20.65625 0-5.773438 4.679687-10.449219 10.449219-10.449219h20.417968c5.773438 0 10.449219 4.675781 10.449219 10.449219 0 11.390625-9.265625 20.65625-20.65625 20.65625zm0 0"/><path d="m222.921875 479.097656c-2.675781 0-5.351563-1.019531-7.390625-3.058594l-23.464844-23.464843c-4.078125-4.078125-4.078125-10.695313 0-14.777344l23.464844-23.464844c4.082031-4.078125 10.695312-4.078125 14.777344 0 4.082031 4.082031 4.082031 10.695313 0 14.777344l-16.078125 16.078125 16.078125 16.078125c4.082031 4.078125 4.082031 10.695313 0 14.773437-2.039063 2.039063-4.714844 3.058594-7.386719 3.058594zm0 0"/><path d="m288.730469 479.097656c-2.675781 0-5.347657-1.019531-7.386719-3.058594-4.082031-4.078124-4.082031-10.695312 0-14.777343l16.078125-16.078125-16.078125-16.074219c-4.082031-4.082031-4.082031-10.695313 0-14.777344 4.078125-4.082031 10.695312-4.082031 14.773438 0l23.464843 23.464844c4.082031 4.078125 4.082031 10.695313 0 14.777344l-23.464843 23.464843c-2.039063 2.039063-4.714844 3.058594-7.386719 3.058594zm0 0"/><path d="m251.828125 479.101562c-.625 0-1.261719-.058593-1.902344-.175781-5.675781-1.042969-9.425781-6.488281-8.382812-12.164062l8.679687-47.171875c1.046875-5.671875 6.488282-9.425782 12.167969-8.382813 5.675781 1.042969 9.429687 6.492188 8.382813 12.167969l-8.679688 47.167969c-.929688 5.035156-5.320312 8.558593-10.265625 8.558593zm0 0"/><path d="m81.703125 147.996094c-17.378906 0-31.515625-14.140625-31.515625-31.519532v-20.546874c0-17.378907 14.136719-31.515626 31.515625-31.515626s31.519531 14.136719 31.519531 31.515626v20.550781c0 17.378906-14.140625 31.515625-31.519531 31.515625zm0-62.6875c-5.855469 0-10.621094 4.765625-10.621094 10.621094v20.550781c0 5.855469 4.765625 10.621093 10.621094 10.621093 5.859375 0 10.625-4.765624 10.625-10.621093v-20.550781c0-5.855469-4.765625-10.621094-10.625-10.621094zm0 0"/><path d="m31.726562 147.996094c-5.769531 0-10.445312-4.675782-10.445312-10.449219v-37.460937l-3.394531 3.390624c-4.078125 4.082032-10.695313 4.082032-14.777344 0-4.078125-4.078124-4.078125-10.695312 0-14.773437l21.230469-21.230469c2.988281-2.988281 7.480468-3.882812 11.386718-2.265625 3.902344 1.617188 6.449219 5.429688 6.449219 9.65625v62.6875c0 5.769531-4.675781 10.445313-10.449219 10.445313zm0 0"/><path d="m430.855469 83.582031c-17.378907 0-31.519531-14.136719-31.519531-31.515625v-20.546875c0-17.378906 14.140624-31.519531 31.519531-31.519531 17.378906 0 31.515625 14.140625 31.515625 31.519531v20.546875c0 17.378906-14.136719 31.515625-31.515625 31.515625zm0-62.6875c-5.859375 0-10.625 4.765625-10.625 10.625v20.546875c0 5.855469 4.765625 10.621094 10.625 10.621094 5.855469 0 10.621093-4.765625 10.621093-10.621094v-20.546875c0-5.859375-4.765624-10.625-10.621093-10.625zm0 0"/><path d="m501.550781 83.582031c-5.769531 0-10.445312-4.675781-10.445312-10.445312v-37.464844l-3.394531 3.394531c-4.082032 4.078125-10.695313 4.078125-14.777344 0-4.078125-4.082031-4.078125-10.695312 0-14.777344l21.230468-21.230468c2.988282-2.9843752 7.480469-3.878906 11.386719-2.261719 3.902344 1.617187 6.449219 5.425781 6.449219 9.652344v62.6875c0 5.769531-4.675781 10.445312-10.449219 10.445312zm0 0"/><path d="m488.355469 219.820312h-63.457031c-13.039063 0-23.648438 10.609376-23.648438 23.648438v120.230469c0 13.039062 10.609375 23.648437 23.648438 23.648437h63.457031c13.035156 0 23.644531-10.609375 23.644531-23.648437v-120.230469c0-13.039062-10.609375-23.648438-23.644531-23.648438zm-66.207031 46.617188h68.957031v70.742188h-68.957031zm0-22.96875c0-1.519531 1.234374-2.753906 2.75-2.753906h63.457031c1.515625 0 2.75 1.234375 2.75 2.753906v2.070312h-68.957031zm68.957031 120.230469c0 1.519531-1.234375 2.753906-2.75 2.753906h-63.457031c-1.515626 0-2.75-1.234375-2.75-2.753906v-5.625h68.957031zm0 0"/><path d="m467.5625 491.066406h-57.964844v-70.644531c0-20.363281-12.289062-39.707031-29.886718-47.039063l-67.242188-28.019531c-2.082031-.867187-3.519531-2.734375-3.855469-4.914062-.003906-.050781-.011719-.101563-.015625-.152344-.039062-.273437-.0625-.550781-.0625-.835937v-16.269532l27.308594-15.660156c.191406-.109375.378906-.222656.5625-.34375 13.671875-9.03125 22.652344-25.09375 24.019531-42.960938.019531-.265624.027344-.53125.027344-.796874v-8.675782c13.570313-4.410156 23.402344-17.179687 23.402344-32.199218 0-15.023438-9.835938-27.789063-23.402344-32.203126v-5.183593c5.960937-12.972657 30.710937-74.003907-6.695313-121.660157-17.285156-22.027343-38.015624-31.390624-56.6875-26.03125-15.796874-11.703124-34.5-17.402343-56.976562-17.402343-66.871094 0-106.832031 51.210937-106.832031 100.71875 0 33.25 9.203125 58.210937 15.085937 70.773437-8.355468 3.683594-14.941406 10.652344-18.132812 19.257813h-106.226563c-13.199219 0-23.9374998 11.027343-23.9374998 24.578125v160.273437c0 5.769531 4.6796878 10.449219 10.4492188 10.449219h58.902344v21.207031h-7.707032c-5.773437 0-10.449218 4.679688-10.449218 10.449219s4.675781 10.449219 10.449218 10.449219h40.65625v42.835937h-57.964843c-5.769531 0-10.449219 4.675782-10.449219 10.445313 0 5.773437 4.679688 10.449219 10.449219 10.449219h423.175781c5.769531 0 10.449219-4.675782 10.449219-10.449219 0-5.769531-4.679688-10.445313-10.449219-10.445313zm-104.601562-268.511718c0 7.144531-5.8125 12.953124-12.957032 12.953124-5.769531 0-10.445312 4.679688-10.445312 10.449219v17.050781c-.949219 11.046876-6.441406 21.171876-14.417969 26.574219l-56.097656 32.164063c-.1875.109375-.375.226562-.558594.347656-7.832031 5.171875-17.183594 5.171875-25.019531 0-.1875-.125-.375-.242188-.570313-.355469l-56.257812-32.160156c-7.984375-5.40625-13.285157-15.289063-14.246094-26.566406v-17.054688c0-5.769531-4.675781-10.445312-10.449219-10.445312-7.140625 0-12.953125-5.8125-12.953125-12.957031 0-6.417969 4.699219-11.75 10.835938-12.765626l11.570312 5.851563c-.667969 3.019531-1.035156 6.15625-1.035156 9.375 0 23.902344 19.445313 43.347656 43.347656 43.347656 20.589844 0 37.863281-14.4375 42.253907-33.71875 4.390624 19.277344 21.664062 33.71875 42.253906 33.71875 23.902344 0 43.347656-19.445312 43.347656-43.347656 0-3.171875-.355469-6.265625-1.003906-9.246094l11.601562-5.976562c6.117188 1.03125 10.800782 6.355469 10.800782 12.761719zm-75.324219 112.617187v19.09375c0 17.535156-14.140625 31.804687-31.675781 31.804687-17.539063 0-31.648438-14.269531-31.648438-31.804687v-19.078125l7.9375 4.539062c7.332031 4.761719 15.527344 7.144532 23.726562 7.144532 8.199219 0 16.394532-2.386719 23.730469-7.148438zm10.578125-153.5c-20.589844 0-37.863282 14.4375-42.253906 33.714844-4.390626-19.277344-21.664063-33.714844-42.253907-33.714844-13.199219 0-25.03125 5.933594-32.988281 15.269531l-7.695312-3.894531c2.414062-9.5625 11.753906-35.265625 42.394531-35.265625 25.023437 0 45.46875-7.257812 62.132812-22.128906 6.46875 5.773437 14.972657 9.914062 22.820313 13.738281 5.679687 2.765625 11.550781 5.625 14.453125 8.1875 14.734375 13.023437 22.152343 23.859375 24.734375 28.054687v7.148438l-8.273438 4.257812c-7.957031-9.390624-19.828125-15.367187-33.070312-15.367187zm22.449218 43.34375c0 12.378906-10.070312 22.449219-22.449218 22.449219s-22.449219-10.070313-22.449219-22.449219 10.070313-22.449219 22.449219-22.449219 22.449218 10.070313 22.449218 22.449219zm-84.507812 0c0 12.378906-10.074219 22.449219-22.449219 22.449219-12.378906 0-22.453125-10.070313-22.453125-22.449219s10.074219-22.449219 22.453125-22.449219c12.375 0 22.449219 10.070313 22.449219 22.449219zm3.9375-184.046875c26.199219 0 40.128906 9.316406 48.328125 16.320312 3.160156 2.703126 7.621094 3.269532 11.359375 1.453126 10.726562-5.21875 24.761719 1.382812 37.539062 17.664062 21.945313 27.960938 16.226563 63.632812 9.90625 84.445312-4.609374-5.503906-10.703124-11.980468-18.566406-18.929687-5.03125-4.445313-11.882812-7.785156-19.140625-11.320313-8.554687-4.164062-19.199219-9.351562-21.214843-14.601562-1.316407-3.433594-4.339844-5.917969-7.957032-6.550781-3.621094-.632813-7.304687.683593-9.707031 3.464843-14.117187 16.355469-31.664063 23.972657-55.222656 23.972657-28.871094 0-44.796875 15.609375-53.074219 28.707031-.367188.582031-.71875 1.160156-1.0625 1.738281-3.726562-11.667969-7.125-27.523437-7.125-46.535156 0-39.242187 32.144531-79.828125 85.9375-79.828125zm-137.742188 379.453125v6.914063h-12.054687v-21.210938h14.078125c-1.3125 4.605469-2.023438 9.421875-2.023438 14.296875zm13.484376-35.191406h-94.890626v-149.828125c0-1.996094 1.394532-3.679688 3.042969-3.679688h105.390625c3.066406 10.875 11.417969 19.554688 22.117188 23.035156v8.671876c0 .265624.007812.53125.027344.796874 1.375 17.941407 10.289062 34.003907 23.851562 42.960938.1875.121094.378906.238281.574219.351562l27.46875 15.703126v16.21875c0 2.589843-1.546875 4.90625-3.9375 5.902343l-67.242188 28.019531c-6.242187 2.597657-11.808593 6.714844-16.402343 11.847657zm272.867187 105.835937h-265.457031v-70.644531c0-11.773437 7.320312-23.707031 17.027344-27.75l64.289062-26.789063c5.308594 23.488282 26.328125 41.085938 51.394531 41.085938 25.074219 0 46.097657-17.605469 51.398438-41.09375l64.316406 26.796875c9.707031 4.042969 17.027344 15.976563 17.027344 27.753906v70.640625zm0 0"/></svg>