<svg height="496pt" viewBox="0 0 496 496" width="496pt" xmlns="http://www.w3.org/2000/svg"><g fill="#fcd770"><path d="m34.960938 460.398438c3.117187 2.882812 5.039062 7.042968 5.039062 11.601562 0 8.800781-7.199219 16-16 16s-16-7.199219-16-16 7.199219-16 16-16c4.238281 0 8.078125 1.601562 10.960938 4.398438zm0 0"/><path d="m360 472c0 8.835938-7.164062 16-16 16s-16-7.164062-16-16 7.164062-16 16-16 16 7.164062 16 16zm0 0"/><path d="m200 424c8.800781 0 16 7.199219 16 16s-7.199219 16-16 16-16-7.199219-16-16c0-6.398438 3.839844-12 9.28125-14.480469 2.078125-.960937 4.320312-1.519531 6.71875-1.519531zm0 0"/></g><path d="m152 312c13.28125 0 24 10.71875 24 24 0 9.679688-5.679688 18-13.921875 21.761719-3.039063 1.4375-6.476563 2.238281-10.078125 2.238281-6.398438 0-12.160156-2.480469-16.398438-6.558594-4.722656-4.320312-7.601562-10.5625-7.601562-17.441406 0-13.28125 10.71875-24 24-24zm0 0" fill="#4fc1e9"/><path d="m456.71875 300.71875c-.480469-1.4375-.71875-3.039062-.71875-4.71875 0-8.800781 7.199219-16 16-16s16 7.199219 16 16-7.199219 16-16 16c-7.121094 0-13.28125-4.71875-15.28125-11.28125zm0 0" fill="#fcd770"/><path d="m472 8c8.800781 0 16 7.199219 16 16s-7.199219 16-16 16c-4.238281 0-8.078125-1.601562-10.960938-4.398438-3.117187-2.882812-5.039062-7.042968-5.039062-11.601562 0-8.800781 7.199219-16 16-16zm0 0" fill="#fcd770"/><path d="m360.398438 142.558594c4.722656 4.320312 7.601562 10.5625 7.601562 17.441406 0 13.28125-10.71875 24-24 24s-24-10.71875-24-24 10.71875-24 24-24c6.398438 0 12.160156 2.480469 16.398438 6.558594zm0 0" fill="#4fc1e9"/><path d="m168 24c0 8.835938-7.164062 16-16 16s-16-7.164062-16-16 7.164062-16 16-16 16 7.164062 16 16zm0 0" fill="#fcd770"/><path d="m37.199219 238.960938c1.761719 2.558593 2.800781 5.679687 2.800781 9.039062 0 8.800781-7.199219 16-16 16s-16-7.199219-16-16 7.199219-16 16-16c5.441406 0 10.320312 2.800781 13.199219 6.960938zm0 0" fill="#fcd770"/><path d="m389.839844 321.679688c1.441406 4.558593 2.160156 9.359374 2.160156 14.320312 0 26.480469-21.519531 48-48 48s-48-21.519531-48-48 21.519531-48 48-48c21.519531 0 39.761719 14.238281 45.839844 33.679688zm0 0" fill="#69d6f4"/><path d="m152 112c26.480469 0 48 21.519531 48 48s-21.519531 48-48 48c-16.398438 0-30.878906-8.238281-39.519531-20.800781-5.359375-7.757813-8.480469-17.121094-8.480469-27.199219 0-26.480469 21.519531-48 48-48zm0 0" fill="#69d6f4"/><path d="m152 168c-4.414062 0-8-3.59375-8-8h-16c0 13.230469 10.769531 24 24 24zm0 0"/><path d="m344 344v16c13.230469 0 24-10.769531 24-24h-16c0 4.40625-3.585938 8-8 8zm0 0"/><path d="m472 272c-12.921875 0-23.414062 10.289062-23.902344 23.089844l-53.640625 16.765625c-7.9375-16.503907-23.6875-28.511719-42.449219-31.214844v-89.777344c13.769532-3.574219 24-16 24-30.863281 0-6.265625-1.878906-12.070312-5-17.007812l91.335938-97.054688c2.960938 1.308594 6.214844 2.0625 9.65625 2.0625 13.230469 0 24-10.769531 24-24s-10.769531-24-24-24-24 10.769531-24 24c0 3.945312 1.046875 7.617188 2.742188 10.902344l-91.4375 97.167968c-4.570313-2.511718-9.738282-4.070312-15.304688-4.070312-14.871094 0-27.289062 10.238281-30.863281 24h-105.777344c-3.527344-24.472656-22.886719-43.832031-47.359375-47.359375v-58.113281c9.289062-3.3125 16-12.113282 16-22.527344 0-13.230469-10.769531-24-24-24s-24 10.769531-24 24c0 10.414062 6.710938 19.214844 16 22.527344v58.113281c-27.089844 3.902344-48 27.207031-48 55.359375 0 8.902344 2.144531 17.289062 5.855469 24.769531l-63.808594 43.855469c-3.957031-2.871094-8.789063-4.625-14.046875-4.625-13.230469 0-24 10.769531-24 24s10.769531 24 24 24 24-10.769531 24-24c0-2.144531-.375-4.191406-.902344-6.167969l63.839844-43.878906c8.519531 9.214844 20.0625 15.542969 33.0625 17.414063v89.777343c-13.769531 3.574219-24 16-24 30.863281 0 6.265626 1.878906 12.070313 5 17.015626l-91.34375 97.039062c-2.960938-1.308594-6.214844-2.0625-9.65625-2.0625-13.230469 0-24 10.769531-24 24s10.769531 24 24 24 24-10.769531 24-24c0-3.945312-1.046875-7.617188-2.742188-10.902344l91.445313-97.160156c4.570313 2.503906 9.730469 4.0625 15.296875 4.0625 1.953125 0 3.832031-.238281 5.6875-.574219l25.585938 55.414063c-4.472657 4.367187-7.273438 10.433594-7.273438 17.160156 0 13.230469 10.769531 24 24 24s24-10.769531 24-24-10.769531-24-24-24c-.742188 0-1.441406.152344-2.160156.214844l-25.65625-55.582032c5.160156-4.234374 8.960937-9.984374 10.6875-16.632812h105.769531c3.527344 24.472656 22.886719 43.832031 47.359375 47.359375v58.113281c-9.289062 3.3125-16 12.113282-16 22.527344 0 13.230469 10.769531 24 24 24s24-10.769531 24-24c0-10.414062-6.710938-19.214844-16-22.527344v-58.113281c27.089844-3.902344 48-27.207031 48-55.359375 0-3.023438-.3125-5.976562-.777344-8.878906l53.65625-16.769532c4.386719 5.824219 11.289063 9.648438 19.121094 9.648438 13.230469 0 24-10.769531 24-24s-10.769531-24-24-24zm-448-16c-4.414062 0-8-3.59375-8-8s3.585938-8 8-8 8 3.59375 8 8-3.585938 8-8 8zm184 184c0 4.40625-3.585938 8-8 8s-8-3.59375-8-8 3.585938-8 8-8 8 3.59375 8 8zm264-424c4.414062 0 8 3.59375 8 8s-3.585938 8-8 8-8-3.59375-8-8 3.585938-8 8-8zm-128 128c8.824219 0 16 7.175781 16 16s-7.175781 16-16 16-16-7.175781-16-16 7.175781-16 16-16zm-192-128c4.414062 0 8 3.59375 8 8s-3.585938 8-8 8-8-3.59375-8-8 3.585938-8 8-8zm-40 144c0-22.054688 17.945312-40 40-40s40 17.945312 40 40-17.945312 40-40 40-40-17.945312-40-40zm-88 320c-4.414062 0-8-3.59375-8-8s3.585938-8 8-8 8 3.59375 8 8-3.585938 8-8 8zm112-144c0-8.824219 7.175781-16 16-16s16 7.175781 16 16-7.175781 16-16 16-16-7.175781-16-16zm24-30.863281v-89.777344c24.472656-3.527344 43.832031-22.886719 47.359375-47.359375h105.777344c2.910156 11.191406 11.671875 19.953125 22.863281 22.863281v89.777344c-24.472656 3.527344-43.832031 22.886719-47.359375 47.359375h-105.777344c-2.910156-11.191406-11.671875-19.953125-22.863281-22.863281zm184 174.863281c-4.414062 0-8-3.59375-8-8s3.585938-8 8-8 8 3.59375 8 8-3.585938 8-8 8zm0-104c-22.054688 0-40-17.945312-40-40s17.945312-40 40-40 40 17.945312 40 40-17.945312 40-40 40zm128-72c-4.414062 0-8-3.59375-8-8s3.585938-8 8-8 8 3.59375 8 8-3.585938 8-8 8zm0 0"/></svg>